<svg version="1.1" id="Layer_1" xmlns="http://www.w3.org/2000/svg" xmlns:xlink="http://www.w3.org/1999/xlink" x="0px" y="0px"
	 width="100%" viewBox="0 0 50 50" enable-background="new 0 0 50 50" xml:space="preserve">
<path fill="#000000" opacity="1.000000" stroke="none" 
	d="
M51.000000,16.992638 
	C51.000000,28.660490 51.000000,39.827011 51.000000,50.995148 
	C34.335709,50.996765 17.671419,50.996765 1.005347,50.998383 
	C1.003565,34.335930 1.003565,17.671858 1.001782,1.005841 
	C17.663851,1.003894 34.327702,1.003894 50.995777,1.001945 
	C51.000000,6.163767 51.000000,11.327537 51.000000,16.992638 
M36.250648,5.000124 
	C28.919783,5.000163 21.588881,4.986241 14.258063,5.004875 
	C8.868955,5.018574 6.022706,7.772132 6.007412,13.025977 
	C5.981223,22.022873 5.982568,31.019947 6.007252,40.016853 
	C6.021061,45.049622 8.860766,47.969913 13.782917,47.990646 
	C21.780085,48.024338 29.777531,48.014606 37.774792,47.994820 
	C43.156502,47.981506 45.977177,45.224064 45.992870,39.935238 
	C46.018581,31.271561 46.003864,22.607754 45.998550,13.944006 
	C45.994602,7.499866 43.588341,5.065515 36.250648,5.000124 
z"/>
<path fill="#5271FF" opacity="1.000000" stroke="none" 
	d="
M36.714878,5.000177 
	C43.588341,5.065515 45.994602,7.499866 45.998550,13.944006 
	C46.003864,22.607754 46.018581,31.271561 45.992870,39.935238 
	C45.977177,45.224064 43.156502,47.981506 37.774792,47.994820 
	C29.777531,48.014606 21.780085,48.024338 13.782917,47.990646 
	C8.860766,47.969913 6.021061,45.049622 6.007252,40.016853 
	C5.982568,31.019947 5.981223,22.022873 6.007412,13.025977 
	C6.022706,7.772132 8.868955,5.018574 14.258063,5.004875 
	C21.588881,4.986241 28.919783,5.000163 36.714878,5.000177 
M9.050109,10.950437 
	C8.700337,17.338360 8.045620,23.729565 8.114279,30.112988 
	C8.155981,33.990273 8.797147,38.092220 14.454552,38.152111 
	C21.673563,38.228535 28.899277,38.981083 36.101929,38.766151 
	C39.961067,38.650990 43.267063,36.251629 43.505383,31.909203 
	C43.829624,26.001190 43.858608,20.050394 43.543159,14.143101 
	C43.329273,10.137791 40.439003,7.531271 36.647331,7.369956 
	C29.415178,7.062264 22.143848,7.291466 14.909449,7.681309 
	C13.019966,7.783129 11.206589,9.297233 9.050109,10.950437 
M14.559868,45.127312 
	C25.378054,48.470638 40.450008,46.116222 42.760883,40.817421 
	C31.570627,40.817421 20.332787,40.817421 9.094945,40.817421 
	C8.889874,41.262081 8.684804,41.706738 8.479733,42.151398 
	C10.223454,43.106625 11.967175,44.061855 14.559868,45.127312 
z"/>
<path fill="#000000" opacity="1.000000" stroke="none" 
	d="
M9.204184,10.556574 
	C11.206589,9.297233 13.019966,7.783129 14.909449,7.681309 
	C22.143848,7.291466 29.415178,7.062264 36.647331,7.369956 
	C40.439003,7.531271 43.329273,10.137791 43.543159,14.143101 
	C43.858608,20.050394 43.829624,26.001190 43.505383,31.909203 
	C43.267063,36.251629 39.961067,38.650990 36.101929,38.766151 
	C28.899277,38.981083 21.673563,38.228535 14.454552,38.152111 
	C8.797147,38.092220 8.155981,33.990273 8.114279,30.112988 
	C8.045620,23.729565 8.700337,17.338360 9.204184,10.556574 
M23.532860,25.968164 
	C23.054304,27.812399 22.575750,29.656635 22.093132,31.516531 
	C25.640306,31.808638 25.640306,31.808638 30.004452,13.057010 
	C28.162567,14.296365 26.449499,14.810262 26.126404,15.784927 
	C25.113384,18.840841 24.624027,22.070349 23.532860,25.968164 
z"/>
<path fill="#000000" opacity="1.000000" stroke="none" 
	d="
M14.135382,45.072197 
	C11.967175,44.061855 10.223454,43.106625 8.479733,42.151398 
	C8.684804,41.706738 8.889874,41.262081 9.094945,40.817421 
	C20.332787,40.817421 31.570627,40.817421 42.760883,40.817421 
	C40.450008,46.116222 25.378054,48.470638 14.135382,45.072197 
z"/>
<path fill="#5271FF" opacity="1.000000" stroke="none" 
	d="
M23.732342,25.600388 
	C24.624027,22.070349 25.113384,18.840841 26.126404,15.784927 
	C26.449499,14.810262 28.162567,14.296365 30.004452,13.057010 
	C25.640306,31.808638 25.640306,31.808638 22.093132,31.516531 
	C22.575750,29.656635 23.054304,27.812399 23.732342,25.600388 
z"/>
</svg>